<svg width="400" height="300" xmlns="http://www.w3.org/2000/svg">
  <defs>
    <linearGradient id="grad4" x1="0%" y1="0%" x2="100%" y2="100%">
      <stop offset="0%" style="stop-color:#8b5cf6;stop-opacity:1" />
      <stop offset="100%" style="stop-color:#7c3aed;stop-opacity:1" />
    </linearGradient>
  </defs>
  <rect width="400" height="300" fill="url(#grad4)"/>
  <!-- Bar chart representation -->
  <rect x="60" y="180" width="30" height="70" fill="white" opacity="0.9" rx="3"/>
  <rect x="100" y="140" width="30" height="110" fill="white" opacity="0.9" rx="3"/>
  <rect x="140" y="160" width="30" height="90" fill="white" opacity="0.9" rx="3"/>
  <rect x="180" y="120" width="30" height="130" fill="white" opacity="0.9" rx="3"/>
  <rect x="220" y="100" width="30" height="150" fill="white" opacity="0.9" rx="3"/>
  <rect x="260" y="130" width="30" height="120" fill="white" opacity="0.9" rx="3"/>
  <rect x="300" y="170" width="30" height="80" fill="white" opacity="0.9" rx="3"/>
  <!-- Scatter points -->
  <circle cx="80" cy="80" r="4" fill="white" opacity="0.8"/>
  <circle cx="120" cy="70" r="4" fill="white" opacity="0.8"/>
  <circle cx="160" cy="85" r="4" fill="white" opacity="0.8"/>
  <circle cx="200" cy="60" r="4" fill="white" opacity="0.8"/>
  <circle cx="240" cy="50" r="4" fill="white" opacity="0.8"/>
  <circle cx="280" cy="75" r="4" fill="white" opacity="0.8"/>
  <circle cx="320" cy="90" r="4" fill="white" opacity="0.8"/>
  <!-- Connecting lines -->
  <path d="M 80,80 L 120,70 L 160,85 L 200,60 L 240,50 L 280,75 L 320,90" stroke="white" stroke-width="2" fill="none" opacity="0.7"/>
  <text x="200" y="30" text-anchor="middle" fill="white" font-family="Arial, sans-serif" font-size="18" font-weight="bold">Data Analytics Dashboard</text>
  <text x="200" y="280" text-anchor="middle" fill="white" font-family="Arial, sans-serif" font-size="14">Real-time data visualization</text>
</svg>
