<svg width="400" height="300" xmlns="http://www.w3.org/2000/svg">
  <defs>
    <linearGradient id="grad3" x1="0%" y1="0%" x2="100%" y2="100%">
      <stop offset="0%" style="stop-color:#f59e0b;stop-opacity:1" />
      <stop offset="100%" style="stop-color:#d97706;stop-opacity:1" />
    </linearGradient>
  </defs>
  <rect width="400" height="300" fill="url(#grad3)"/>
  <!-- 3D Cube representation -->
  <polygon points="100,100 180,60 180,140 100,180" fill="white" opacity="0.9"/>
  <polygon points="180,60 260,100 260,180 180,140" fill="white" opacity="0.7"/>
  <polygon points="100,180 180,140 260,180 180,220" fill="white" opacity="0.5"/>
  <!-- Grid lines -->
  <line x1="50" y1="250" x2="350" y2="250" stroke="white" stroke-width="1" opacity="0.6"/>
  <line x1="50" y1="250" x2="80" y2="220" stroke="white" stroke-width="1" opacity="0.6"/>
  <line x1="100" y1="250" x2="130" y2="220" stroke="white" stroke-width="1" opacity="0.6"/>
  <line x1="150" y1="250" x2="180" y2="220" stroke="white" stroke-width="1" opacity="0.6"/>
  <line x1="200" y1="250" x2="230" y2="220" stroke="white" stroke-width="1" opacity="0.6"/>
  <line x1="250" y1="250" x2="280" y2="220" stroke="white" stroke-width="1" opacity="0.6"/>
  <line x1="300" y1="250" x2="330" y2="220" stroke="white" stroke-width="1" opacity="0.6"/>
  <line x1="350" y1="250" x2="380" y2="220" stroke="white" stroke-width="1" opacity="0.6"/>
  <text x="200" y="30" text-anchor="middle" fill="white" font-family="Arial, sans-serif" font-size="18" font-weight="bold">3D Reeb Graph Explorer</text>
  <text x="200" y="280" text-anchor="middle" fill="white" font-family="Arial, sans-serif" font-size="14">Interactive 3D visualization tool</text>
</svg>
