<svg width="400" height="300" xmlns="http://www.w3.org/2000/svg">
  <defs>
    <linearGradient id="grad2" x1="0%" y1="0%" x2="100%" y2="100%">
      <stop offset="0%" style="stop-color:#10b981;stop-opacity:1" />
      <stop offset="100%" style="stop-color:#059669;stop-opacity:1" />
    </linearGradient>
  </defs>
  <rect width="400" height="300" fill="url(#grad2)"/>
  <rect x="50" y="50" width="60" height="40" fill="white" opacity="0.9" rx="5"/>
  <rect x="50" y="100" width="80" height="40" fill="white" opacity="0.9" rx="5"/>
  <rect x="50" y="150" width="100" height="40" fill="white" opacity="0.9" rx="5"/>
  <rect x="50" y="200" width="40" height="40" fill="white" opacity="0.9" rx="5"/>
  <rect x="200" y="70" width="150" height="80" fill="white" opacity="0.2" rx="10"/>
  <rect x="210" y="80" width="130" height="15" fill="white" opacity="0.8" rx="3"/>
  <rect x="210" y="100" width="100" height="15" fill="white" opacity="0.8" rx="3"/>
  <rect x="210" y="120" width="80" height="15" fill="white" opacity="0.8" rx="3"/>
  <circle cx="320" cy="200" r="30" fill="white" opacity="0.3"/>
  <circle cx="320" cy="200" r="20" fill="white" opacity="0.5"/>
  <circle cx="320" cy="200" r="10" fill="white" opacity="0.8"/>
  <text x="200" y="30" text-anchor="middle" fill="white" font-family="Arial, sans-serif" font-size="18" font-weight="bold">Email Spam Detection</text>
  <text x="200" y="280" text-anchor="middle" fill="white" font-family="Arial, sans-serif" font-size="14">AI-powered spam classifier</text>
</svg>
